<svg width="60" height="29" viewBox="0 0 60 29" fill="none" xmlns="http://www.w3.org/2000/svg">
<path fill-rule="evenodd" clip-rule="evenodd" d="M46.586 20.8302C46.6795 20.8392 46.7686 20.8745 46.843 20.9318L56.2711 28.1977C56.5904 28.4437 57.0459 28.2302 57.0428 27.8271C57.0377 27.1621 56.996 26.2793 56.8366 25.6229C56.4301 23.9479 54.8401 22.0265 54.0203 21.1201C53.7857 20.8607 53.8631 20.4363 54.1744 20.277C55.1481 19.7786 56.975 18.7536 57.9413 17.6367C58.5822 16.8958 59.184 15.7221 59.557 14.9164C59.7275 14.5484 59.3979 14.1637 59.0037 14.2591L47.9176 16.9433C47.8179 16.9674 47.7155 16.9612 47.6201 16.9235C46.881 16.6315 43.4675 15.2717 41.2617 14.2027C38.1945 12.7162 34.0521 10.1392 32.2778 9.01231C31.9254 8.78843 31.9939 8.2614 32.3894 8.12759L34.4344 7.43579C34.6627 7.35855 34.8035 7.12942 34.7691 6.89085L33.8556 0.550679C33.8031 0.186362 33.3883 0.00172111 33.0825 0.206557L25.0746 5.57023C24.9691 5.64091 24.8412 5.66889 24.7158 5.64891C23.8516 5.51126 20.2973 4.96141 17.89 4.83444C15.0509 4.68469 13.4358 4.63405 10.6109 4.95456C8.10107 5.23932 4.32128 6.22525 4.05391 6.29547C4.043 6.29833 4.03355 6.30123 4.02286 6.30484L2.20154 6.92098C1.30001 7.22595 0.766664 8.1545 0.957463 9.08689V9.08689C1.032 9.45116 1.21124 9.7843 1.47825 10.043C2.3521 10.8898 4.4623 12.8923 6.09087 14.0962C8.37708 15.7862 9.80109 16.5499 12.3347 17.8398C14.4777 18.9308 17.8197 20.2281 18.6472 20.545C18.7697 20.5919 18.8682 20.6841 18.9232 20.8032L21.7933 27.0131C21.9446 27.3404 22.3821 27.4048 22.6213 27.1351L24.7884 24.6913C24.9557 24.5026 24.9563 24.2189 24.7898 24.0295L23.5666 22.6376C23.2635 22.2926 23.5469 21.7472 24.0042 21.7905C25.0845 21.8926 26.6261 22.0095 27.7895 21.9809C29.5226 21.9381 32.0321 21.5325 32.8602 21.3913C33.033 21.3618 33.2075 21.4236 33.3233 21.5553L37.3733 26.1638C37.6162 26.4401 38.0642 26.3684 38.2087 26.0301L40.531 20.5936C40.6166 20.3932 40.8221 20.2714 41.039 20.2924L46.586 20.8302ZM5.9014 10.9396C6.96833 11.2255 8.06501 10.5923 8.35089 9.52537C8.63677 8.45843 8.00361 7.36176 6.93668 7.07588C5.86974 6.78999 4.77307 7.42316 4.48719 8.49009C4.2013 9.55702 4.83447 10.6537 5.9014 10.9396Z" fill="black"/>
</svg>
